<svg width="17" height="18" viewBox="0 0 17 18" fill="none" xmlns="http://www.w3.org/2000/svg">
<path fill-rule="evenodd" clip-rule="evenodd" d="M8.08333 0.666664C3.71108 0.666664 0.166664 4.21108 0.166664 8.58333C0.166664 12.9556 3.71108 16.5 8.08333 16.5C9.96929 16.5 11.7012 15.8405 13.0611 14.7396L15.4107 17.0893C15.7362 17.4147 16.2638 17.4147 16.5893 17.0893C16.9147 16.7638 16.9147 16.2362 16.5893 15.9107L14.2396 13.5611C15.3405 12.2012 16 10.4693 16 8.58333C16 4.21108 12.4556 0.666664 8.08333 0.666664ZM1.83333 8.58333C1.83333 5.13155 4.63155 2.33333 8.08333 2.33333C11.5351 2.33333 14.3333 5.13155 14.3333 8.58333C14.3333 12.0351 11.5351 14.8333 8.08333 14.8333C4.63155 14.8333 1.83333 12.0351 1.83333 8.58333Z" fill="#909090"/>
</svg>
